<?xml version="1.0" encoding="UTF-8" standalone="no"?>
<svg width="100%" height="100%" viewBox="0 0 2084 784" shape-rendering="geometricPrecision" text-rendering="geometricPrecision" image-rendering="optimizeQuality" version="1.1"
     xmlns="http://www.w3.org/2000/svg"
     xmlns:xlink="http://www.w3.org/1999/xlink"
     xml:space="preserve"
     xmlns:serif="http://www.serif.com/"
     style="fill-rule:evenodd;clip-rule:evenodd;">

  <defs>
    <!-- Galaxy gradient -->
    <radialGradient id="galaxyGradient" cx="50%" cy="50%" r="80%">
      <stop offset="0%" stop-color="#4b1d6d"/>
      <stop offset="40%" stop-color="#2a1a47"/>
      <stop offset="100%" stop-color="#0b0b20"/>
    </radialGradient>

    <!-- Nebula purples/blues -->
    <radialGradient id="nebulaPurple" cx="50%" cy="50%" r="50%">
      <stop offset="0%" stop-color="#a45ee5" stop-opacity="0.6"/>
      <stop offset="100%" stop-color="transparent"/>
    </radialGradient>
    <radialGradient id="nebulaBlue" cx="50%" cy="50%" r="50%">
      <stop offset="0%" stop-color="#4cc9f0" stop-opacity="0.4"/>
      <stop offset="100%" stop-color="transparent"/>
    </radialGradient>

    <!-- Clip path for rounded edges -->
    <clipPath id="_clip2">
      <path d="M2074.65,147.571v486.108c0,76.659 -62.233,138.892 -138.891,138.892H147.569c-76.659,0 -138.892,-62.233 -138.892,-138.892V147.571c0,-76.658 62.233,-138.892 138.892,-138.892h1788.19c76.658,0 138.891,62.234 138.891,138.892Z"/>
    </clipPath>
  </defs>

  <!-- Galaxy base -->
  <rect width="100%" height="100%" fill="url(#galaxyGradient)" clip-path="url(#_clip2)" />

  <!-- Nebula clouds -->
  <g clip-path="url(#_clip2)">
    <circle cx="600" cy="300" r="400" fill="url(#nebulaPurple)" opacity="0.7"/>
    <circle cx="1500" cy="500" r="500" fill="url(#nebulaBlue)" opacity="0.6"/>
    <circle cx="1000" cy="150" r="350" fill="url(#nebulaPurple)" opacity="0.5"/>
  </g>

  <!-- Static stars -->
  <g clip-path="url(#_clip2)" opacity="0.8">
    <circle cx="300" cy="200" r="3" fill="white"/>
    <circle cx="1800" cy="600" r="2.4" fill="white"/>
    <circle cx="1200" cy="250" r="2" fill="white"/>
    <circle cx="1600" cy="150" r="3.6" fill="white"/>
    <circle cx="800" cy="500" r="2.6" fill="white"/>
    <circle cx="400" cy="600" r="2" fill="white"/>
    <circle cx="1000" cy="700" r="3" fill="white"/>
  </g>

  <!-- Frame border -->
  <path d="M2074.65,147.571v486.108c0,76.659 -62.233,138.892 -138.891,138.892H147.569c-76.659,0 -138.892,-62.233 -138.892,-138.892V147.571c0,-76.658 62.233,-138.892 138.892,-138.892h1788.19c76.658,0 138.891,62.234 138.891,138.892Z"
        style="fill:none;stroke:#ffffff;stroke-opacity:0.65;stroke-width:18pt;"/>

<!-- Warp stars -->
<g clip-path="url(#_clip2)" opacity="0.7">
  <circle cx="220" cy="120" r="12" fill="#fff"/>
  <circle cx="1720" cy="260" r="14" fill="#fff"/>
  <circle cx="380" cy="680" r="16" fill="#fff"/>
  <circle cx="1860" cy="740" r="24" fill="#fff"/>
  <circle cx="980" cy="180" r="15" fill="#fff"/>
  <circle cx="1100" cy="620" r="18" fill="#fff"/>
  <circle cx="1200" cy="100" r="20" fill="#fff"/>
  <circle cx="600" cy="500" r="10" fill="#fff"/>
  <circle cx="1500" cy="580" r="22" fill="#fff"/>
  <circle cx="800" cy="240" r="13" fill="#fff"/>
</g>



  <!-- GitHub-like logo -->
  <g>
    <path d="M352.675,182.538c-0.283,-0.001 -0.571,-0.005 -0.854,-0.005c-116.05,0 -211.542,95.496 -211.542,211.546c0,91.146 58.904,172.513 145.492,200.971c10.579,2.113 14.546,-4.496 14.546,-10.05l-0.267,-35.433c-59.229,12.958 -71.925,-28.559 -71.925,-28.559c-9.517,-24.591 -23.796,-31.204 -23.796,-31.204c-19.571,-13.483 1.588,-13.221 1.588,-13.221c21.683,1.588 33.05,22.213 33.05,22.213c19.304,33.317 51.037,23.8 63.466,18.246c1.85,-14.017 7.667,-23.8 13.75,-29.35c-47.333,-5.554 -97.312,-23.8 -97.312,-105.246c-0,-23.271 8.2,-42.308 21.683,-57.379c-2.112,-5.292 -9.516,-26.975 2.117,-56.063c-0,0 17.716,-5.816 58.175,21.95c17.233,-4.721 35.017,-7.121 52.887,-7.141c17.98,-0 35.963,2.379 52.884,7.141c40.196,-27.766 58.175,-21.95 58.175,-21.95c11.633,29.088 4.233,50.771 2.116,56.063c13.484,15.071 21.684,34.375 21.684,57.379c-0,81.708 -50.242,99.692 -98.104,104.979c7.933,6.875 14.808,20.363 14.808,40.988l-0.267,60.554c0,5.554 3.967,12.162 14.546,10.05c94.667,-22.85 161.912,-108.259 161.912,-205.642c0,-116.05 -95.495,-211.546 -211.545,-211.546c-5.763,0 -11.525,0.238 -17.267,0.709Z" style="fill:#fff;fill-rule:nonzero;"/>
  </g>

  <!-- Text -->
  <text x="694.892px" y="476.7px"
        style="font-family:'SegoeUI-Bold','Segoe UI';font-weight:700;font-size:243.054px;fill:#fff;">
    SUBSCRIBE
  </text>
</svg>
