<?xml version="1.0" encoding="UTF-8" standalone="no"?><!DOCTYPE svg PUBLIC "-//W3C//DTD SVG 1.1//EN" "http://www.w3.org/Graphics/SVG/1.1/DTD/svg11.dtd"><svg width="100%" height="100%" viewBox="0 0 8684 3267" version="1.1" xmlns="http://www.w3.org/2000/svg" xmlns:xlink="http://www.w3.org/1999/xlink" xml:space="preserve" xmlns:serif="http://www.serif.com/" shape-rendering="geometricPrecision" text-rendering="geometricPrecision" image-rendering="optimizeQuality" style="fill-rule:evenodd;clip-rule:evenodd;"><path d="M8644.38,614.879l0,2025.45c0,319.413 -259.304,578.717 -578.712,578.717l-7450.79,-0c-319.413,-0 -578.717,-259.304 -578.717,-578.717l0,-2025.45c0,-319.408 259.304,-578.717 578.717,-578.717l7450.79,0c319.408,0 578.712,259.309 578.712,578.717Z" style="fill:none;stroke:#ffac4c;stroke-width:75px;"/><path d="M8644.38,614.879l0,2025.45c0,319.413 -259.304,578.717 -578.712,578.717l-7450.79,-0c-319.413,-0 -578.717,-259.304 -578.717,-578.717l0,-2025.45c0,-319.408 259.304,-578.717 578.717,-578.717l7450.79,0c319.408,0 578.712,259.309 578.712,578.717Z" style="fill:url(#_Linear1);stroke:#fff;stroke-opacity:0.25;stroke-width:72.42px;"/><g><clipPath id="_clip2"><path d="M8644.38,614.879l0,2025.45c0,319.413 -259.304,578.717 -578.712,578.717l-7450.79,-0c-319.413,-0 -578.717,-259.304 -578.717,-578.717l0,-2025.45c0,-319.408 259.304,-578.717 578.717,-578.717l7450.79,0c319.408,0 578.712,259.309 578.712,578.717Z"/></clipPath><g clip-path="url(#_clip2)"><g opacity="0.7"><!-- Left ellipse: fast pulse + shimmer -->
<ellipse cx="1446.75" cy="578.7" rx="2531.83" ry="1446.75" style="fill:url(#_Radial3);"/>
<!-- Right ellipse: offset pulse + glow -->
<ellipse cx="6872.08" cy="2676.51" rx="3255.21" ry="1808.45" style="fill:url(#_Radial4);" />
</g></g></g><g><path d="M1019.51,1430.96c-50.541,-452.416 213.834,-770.625 709.417,-951.791c-303.542,393.75 258.708,820.333 289.708,1229.29c72.667,-123.958 113.917,-289.5 122.084,-510.625c371.583,583 63.541,1535.79 -754.25,1398.88c-75.084,-12.541 -147.417,-36.25 -213.375,-71.541c-298.167,-159.334 -476.334,-506.292 -476.334,-837.667c0,-211.208 90.334,-399.792 207.25,-549.625c15.625,146.792 48.875,256.292 115.5,293.083Z" style="fill:#e20919;"/><path d="M1276.59,2031.21c-90.959,-240.25 -78.375,-628.125 176.375,-764.208c1.791,445.958 431.541,502.667 351.833,978.75c73.5,-84.958 110.458,-220.917 117.083,-328.125c116.5,272.417 25.167,490.5 -140.875,601.542c-504.791,337.5 -939.5,-346.792 -650.458,-721.917c8.667,83.625 108.917,213 146.042,233.958Z" style="fill:url(#_Linear5);"/></g><text x="2895.48px" y="1987.64px" style="font-family:'SegoeUI-Bold', 'Segoe UI';font-weight:700;font-size:1012.73px;fill:#fff;">SUBSCRIBE</text><defs><linearGradient id="_Linear1" x1="0" y1="0" x2="1" y2="0" gradientUnits="userSpaceOnUse" gradientTransform="matrix(8608.21,3182.87,-3182.87,8608.21,36.1689,36.1689)"><stop offset="0" style="stop-color:#1b0a08;stop-opacity:1"/><stop offset="0.35" style="stop-color:#5b0d0a;stop-opacity:1"/><stop offset="0.7" style="stop-color:#b32e0e;stop-opacity:1"/><stop offset="1" style="stop-color:#ff6b00;stop-opacity:1"/></linearGradient><radialGradient id="_Radial3" cx="0" cy="0" r="1" gradientUnits="userSpaceOnUse" gradientTransform="matrix(4557.29,0,0,4557.29,-72.3379,-578.704)"><stop offset="0" style="stop-color:#ffcf7a;stop-opacity:0.9"/><stop offset="1" style="stop-color:#ff6b00;stop-opacity:0"/></radialGradient><radialGradient id="_Radial4" cx="0" cy="0" r="1" gradientUnits="userSpaceOnUse" gradientTransform="matrix(5859.38,0,0,5859.38,4918.96,1229.75)"><stop offset="0" style="stop-color:#ffcf7a;stop-opacity:0.9"/><stop offset="1" style="stop-color:#ff6b00;stop-opacity:0"/></radialGradient><linearGradient id="_Linear5" x1="0" y1="0" x2="1" y2="0" gradientUnits="userSpaceOnUse" gradientTransform="matrix(5.46601e-14,892.667,-892.667,5.46601e-14,1378.09,1672.79)"><stop offset="0" style="stop-color:#fb6404;stop-opacity:1"/><stop offset="1" style="stop-color:#f2be10;stop-opacity:1"/></linearGradient></defs></svg>